<svg width="18" height="23" viewBox="0 0 18 23" fill="none" xmlns="http://www.w3.org/2000/svg">
<path d="M17.4424 15.0566C17.2275 17.332 16.3877 19.1094 14.9229 20.3887C13.458 21.6582 11.5098 22.293 9.07812 22.293C7.37891 22.293 5.87988 21.8926 4.58105 21.0918C3.29199 20.2812 2.2959 19.1338 1.59277 17.6494C0.889648 16.165 0.523438 14.4414 0.494141 12.4785V10.4863C0.494141 8.47461 0.850586 6.70215 1.56348 5.16895C2.27637 3.63574 3.29688 2.4541 4.625 1.62402C5.96289 0.793945 7.50586 0.378906 9.25391 0.378906C11.6074 0.378906 13.502 1.01855 14.9375 2.29785C16.373 3.57715 17.208 5.38379 17.4424 7.71777H13.751C13.5752 6.18457 13.126 5.08105 12.4033 4.40723C11.6904 3.72363 10.6406 3.38184 9.25391 3.38184C7.64258 3.38184 6.40234 3.97266 5.5332 5.1543C4.67383 6.32617 4.23438 8.0498 4.21484 10.3252V12.2148C4.21484 14.5195 4.625 16.2773 5.44531 17.4883C6.27539 18.6992 7.48633 19.3047 9.07812 19.3047C10.5332 19.3047 11.627 18.9775 12.3594 18.3232C13.0918 17.6689 13.5557 16.5801 13.751 15.0566H17.4424Z" fill="#FF0000"/>
</svg>
